<svg width="24" height="24" viewBox="0 0 24 24" fill="none" xmlns="http://www.w3.org/2000/svg">
<path d="M12.8325 2.7428C10.4163 2.7428 8.09909 3.68198 6.3906 5.35373C4.6821 7.02548 3.72228 9.29287 3.72228 11.6571H0.685547L4.62318 15.51L4.69404 15.6487L8.78351 11.6571H5.74677C5.74677 7.82394 8.9151 4.72375 12.8325 4.72375C16.7499 4.72375 19.9182 7.82394 19.9182 11.6571C19.9182 15.4902 16.7499 18.5904 12.8325 18.5904C10.8789 18.5904 9.10742 17.8079 7.832 16.55L6.39461 17.9565C7.23823 18.7865 8.24144 19.4449 9.34638 19.8937C10.4513 20.3425 11.6361 20.5728 12.8325 20.5714C15.2487 20.5714 17.5659 19.6322 19.2744 17.9604C20.9829 16.2887 21.9427 14.0213 21.9427 11.6571C21.9427 9.29287 20.9829 7.02548 19.2744 5.35373C17.5659 3.68198 15.2487 2.7428 12.8325 2.7428ZM11.8202 7.69518V12.6476L16.1223 15.1436L16.9017 13.8658L13.3386 11.7957V7.69518H11.8202Z" fill="#002B48"/>
</svg>
