<svg width="24" height="24" viewBox="0 0 24 24" fill="none" xmlns="http://www.w3.org/2000/svg">
<path d="M20.3181 12.6561C20.1558 12.4747 20.0664 12.2415 20.0664 12C20.0664 11.7585 20.1558 11.5253 20.3181 11.3438L21.6135 9.91227C21.7563 9.75586 21.8449 9.55905 21.8667 9.35008C21.8885 9.14112 21.8424 8.93073 21.735 8.74911L19.7108 5.30935C19.6045 5.12794 19.4425 4.98414 19.2481 4.89846C19.0536 4.81277 18.8366 4.78957 18.628 4.83216L16.7253 5.20994C16.4832 5.25908 16.2311 5.21947 16.0167 5.09859C15.8023 4.97772 15.6404 4.78393 15.5614 4.5538L14.9441 2.7345C14.8762 2.53704 14.7468 2.36554 14.5743 2.24423C14.4018 2.12292 14.1948 2.05794 13.9826 2.05848H9.9344C9.71371 2.04717 9.49531 2.10712 9.31256 2.22919C9.12982 2.35126 8.99277 2.52873 8.92235 2.7345L8.3556 4.5538C8.27666 4.78393 8.1147 4.97772 7.90029 5.09859C7.68588 5.21947 7.43384 5.25908 7.19174 5.20994L5.23847 4.83216C5.04067 4.8047 4.83901 4.83536 4.65892 4.92028C4.47882 5.0052 4.32833 5.14057 4.22642 5.30935L2.20231 8.74911C2.09216 8.92871 2.04263 9.13791 2.06081 9.34682C2.07898 9.55573 2.16393 9.75364 2.30351 9.91227L3.58882 11.3438C3.75108 11.5253 3.84056 11.7585 3.84056 12C3.84056 12.2415 3.75108 12.4747 3.58882 12.6561L2.30351 14.0877C2.16393 14.2463 2.07898 14.4442 2.06081 14.6532C2.04263 14.8621 2.09216 15.0713 2.20231 15.2509L4.22642 18.6906C4.33278 18.872 4.49473 19.0158 4.68918 19.1015C4.88363 19.1872 5.10065 19.2104 5.30932 19.1678L7.21198 18.79C7.45408 18.7409 7.70612 18.7805 7.92053 18.9014C8.13494 19.0223 8.2969 19.216 8.37584 19.4462L8.99319 21.2655C9.06361 21.4712 9.20066 21.6487 9.38341 21.7708C9.56615 21.8928 9.78455 21.9528 10.0052 21.9415H14.0535C14.2656 21.942 14.4726 21.8771 14.6451 21.7557C14.8177 21.6344 14.947 21.4629 15.0149 21.2655L15.6323 19.4462C15.7112 19.216 15.8732 19.0223 16.0876 18.9014C16.302 18.7805 16.554 18.7409 16.7961 18.79L18.6988 19.1678C18.9075 19.2104 19.1245 19.1872 19.3189 19.1015C19.5134 19.0158 19.6753 18.872 19.7817 18.6906L21.8058 15.2509C21.9133 15.0692 21.9594 14.8589 21.9376 14.6499C21.9157 14.4409 21.8271 14.2441 21.6844 14.0877L20.3181 12.6561ZM18.8101 13.9883L19.6198 14.883L18.3243 17.09L17.1301 16.8514C16.4012 16.7051 15.643 16.8267 14.9993 17.1932C14.3557 17.5598 13.8714 18.1457 13.6385 18.8397L13.2539 19.9532H10.6631L10.2987 18.8199C10.0658 18.1258 9.58158 17.5399 8.93794 17.1733C8.2943 16.8068 7.53606 16.6852 6.80716 16.8316L5.61293 17.0702L4.29726 14.8731L5.1069 13.9783C5.60479 13.4315 5.88005 12.7237 5.88005 11.99C5.88005 11.2564 5.60479 10.5485 5.1069 10.0017L4.29726 9.10701L5.59269 6.91988L6.78692 7.15847C7.51582 7.30483 8.27406 7.18321 8.9177 6.81668C9.56134 6.45016 10.0456 5.86425 10.2785 5.17017L10.6631 4.04678H13.2539L13.6385 5.18011C13.8714 5.87419 14.3557 6.4601 14.9993 6.82662C15.643 7.19315 16.4012 7.31477 17.1301 7.16841L18.3243 6.92982L19.6198 9.13683L18.8101 10.0316C18.3178 10.5771 18.046 11.2809 18.046 12.0099C18.046 12.739 18.3178 13.4427 18.8101 13.9883ZM11.9585 8.02338C11.1579 8.02338 10.3752 8.25661 9.70944 8.69356C9.04372 9.13052 8.52485 9.75158 8.21845 10.4782C7.91205 11.2048 7.83188 12.0044 7.98808 12.7758C8.14428 13.5472 8.52984 14.2557 9.09599 14.8119C9.66214 15.368 10.3835 15.7467 11.1687 15.9002C11.954 16.0536 12.768 15.9749 13.5077 15.6739C14.2474 15.3729 14.8797 14.8632 15.3245 14.2093C15.7693 13.5553 16.0067 12.7865 16.0067 12C16.0067 10.9453 15.5802 9.93386 14.821 9.1881C14.0618 8.44235 13.0322 8.02338 11.9585 8.02338ZM11.9585 13.9883C11.5582 13.9883 11.1668 13.8717 10.834 13.6532C10.5011 13.4347 10.2417 13.1242 10.0885 12.7609C9.93528 12.3976 9.8952 11.9978 9.9733 11.6121C10.0514 11.2264 10.2442 10.8721 10.5273 10.594C10.8103 10.316 11.171 10.1266 11.5636 10.0499C11.9563 9.97317 12.3632 10.0125 12.7331 10.163C13.103 10.3135 13.4191 10.5684 13.6415 10.8953C13.8639 11.2223 13.9826 11.6067 13.9826 12C13.9826 12.5273 13.7694 13.033 13.3898 13.4059C13.0102 13.7788 12.4953 13.9883 11.9585 13.9883Z" fill="#002B48"/>
</svg>
