<svg width="24" height="24" viewBox="0 0 24 24" fill="none" xmlns="http://www.w3.org/2000/svg">
<path d="M3 11.2488C3 11.6423 3.30417 11.9828 3.79084 11.9828C4.02657 11.9828 4.23949 11.8542 4.4296 11.7028L11.973 5.39913C12.1859 5.21752 12.4293 5.21752 12.6422 5.39913L20.178 11.7028C20.3605 11.8542 20.5734 11.9828 20.8092 11.9828C21.2578 11.9828 21.6 11.7028 21.6 11.2639C21.6 11.0066 21.5011 10.8023 21.3034 10.6358L19.1666 8.84989V5.70183C19.1666 5.3613 18.9461 5.14941 18.6039 5.14941H17.5545C17.22 5.14941 16.9918 5.3613 16.9918 5.70183V7.02613L13.3874 4.01429C12.7258 3.46187 11.8894 3.46187 11.2278 4.01429L3.30417 10.6358C3.09886 10.8023 3 11.0293 3 11.2488ZM5.47138 18.0519C5.47138 19.1416 6.15576 19.8 7.2888 19.8H17.3188C18.4442 19.8 19.1362 19.1416 19.1362 18.0519V12.3006L12.7715 6.99586C12.4749 6.73857 12.1175 6.74614 11.8285 6.99586L5.47138 12.3006V18.0519ZM14.2999 18.3773H10.3077V13.5341C10.3077 13.1785 10.5434 12.9514 10.9008 12.9514H13.7144C14.0718 12.9514 14.2999 13.1785 14.2999 13.5341V18.3773Z" fill="#047766"/>
</svg>
